<svg width="48" height="51" fill="none" xmlns="http://www.w3.org/2000/svg"><path fill="#7F9CF5" d="M24.21 32.123l15.86-9.157L48 27.544l-15.86 9.157z"/><path fill-rule="evenodd" clip-rule="evenodd" d="M32.14 9.157l-7.93 4.578V32.05l7.93-4.578V9.157zm-7.93 22.892l7.93-4.578v18.314l-7.93 4.578V32.05zm15.86 0l-7.93 4.579v9.157l7.93-4.579L48 36.628V27.47l-7.93 4.578z" fill="#667EEA"/><path fill="#C3DAFE" d="M24.21 4.688l7.93 4.579-7.93 4.578-7.93-4.578zM8.35 13.809l7.93 4.578-7.93 4.579-7.93-4.579zM16.243 27.544l7.93 4.579-7.93 4.578-7.93-4.579z"/><path fill="#7F9CF5" d="M8.35 22.965l7.93-4.578v9.157l-7.93 4.579z"/><path fill-rule="evenodd" clip-rule="evenodd" d="M16.244 9.157l7.93 4.578v36.628l-7.93-4.578V9.157zm0 27.47l-7.93-4.578v-9.157l-7.93-4.578v18.314l7.93 4.578 7.93 4.579v-9.157z" fill="#A3BFFA"/></svg>