<?xml version="1.0" encoding="UTF-8"?>
<svg xmlns="http://www.w3.org/2000/svg" xmlns:xlink="http://www.w3.org/1999/xlink" width="48pt" height="48pt" viewBox="0 0 48 48" version="1.1">
<defs>
<filter id="alpha" filterUnits="objectBoundingBox" x="0%" y="0%" width="100%" height="100%">
  <feColorMatrix type="matrix" in="SourceGraphic" values="0 0 0 0 1 0 0 0 0 1 0 0 0 0 1 0 0 0 1 0"/>
</filter>
<mask id="mask0">
  <g filter="url(#alpha)">
<rect x="0" y="0" width="48" height="48" style="fill:rgb(0%,0%,0%);fill-opacity:0.301961;stroke:none;"/>
  </g>
</mask>
<clipPath id="clip1">
  <rect width="48" height="48"/>
</clipPath>
<g id="surface8296838" clip-path="url(#clip1)">
<path style=" stroke:none;fill-rule:nonzero;fill:rgb(90.588235%,29.803922%,23.529412%);fill-opacity:1;" d="M 40 38 L 8 38 L 8 14 L 24 24 L 40 14 Z M 40 38 "/>
</g>
</defs>
<g id="surface8296833">
<use xlink:href="#surface8296838" mask="url(#mask0)"/>
<path style=" stroke:none;fill-rule:nonzero;fill:rgb(90.588235%,29.803922%,23.529412%);fill-opacity:1;" d="M 40 8 L 8 8 C 5.789062 8 4 9.789062 4 12 L 4 36 C 4 38.210938 5.789062 40 8 40 L 40 40 C 42.210938 40 44 38.210938 44 36 L 44 12 C 44 9.789062 42.210938 8 40 8 Z M 38 36 L 10 36 L 10 12 L 38 12 Z M 38 36 "/>
<path style=" stroke:none;fill-rule:nonzero;fill:rgb(90.588235%,29.803922%,23.529412%);fill-opacity:1;" d="M 6 14.753906 L 24 26 L 42 14.753906 L 42 8.753906 L 24 20 L 6 8.753906 Z M 6 14.753906 "/>
</g>
</svg>
