<?xml version="1.0" encoding="UTF-8"?>
<svg xmlns="http://www.w3.org/2000/svg" xmlns:xlink="http://www.w3.org/1999/xlink" width="48pt" height="48pt" viewBox="0 0 48 48" version="1.1">
<defs>
<filter id="alpha" filterUnits="objectBoundingBox" x="0%" y="0%" width="100%" height="100%">
  <feColorMatrix type="matrix" in="SourceGraphic" values="0 0 0 0 1 0 0 0 0 1 0 0 0 0 1 0 0 0 1 0"/>
</filter>
<mask id="mask0">
  <g filter="url(#alpha)">
<rect x="0" y="0" width="48" height="48" style="fill:rgb(0%,0%,0%);fill-opacity:0.301961;stroke:none;"/>
  </g>
</mask>
<clipPath id="clip1">
  <rect width="48" height="48"/>
</clipPath>
<g id="surface8298230" clip-path="url(#clip1)">
<path style=" stroke:none;fill-rule:nonzero;fill:rgb(20.392157%,59.607843%,85.882353%);fill-opacity:1;" d="M 38 40 L 10 40 C 8.894531 40 8 39.105469 8 38 L 8 10 C 8 8.894531 8.894531 8 10 8 L 38 8 C 39.105469 8 40 8.894531 40 10 L 40 38 C 40 39.105469 39.105469 40 38 40 Z M 38 40 "/>
</g>
</defs>
<g id="surface8298225">
<use xlink:href="#surface8298230" mask="url(#mask0)"/>
<path style=" stroke:none;fill-rule:nonzero;fill:rgb(20.392157%,59.607843%,85.882353%);fill-opacity:1;" d="M 34.101562 19.027344 C 34.101562 19.199219 34.101562 19.371094 34.101562 19.714844 C 34.101562 26.226562 29.128906 33.773438 20.042969 33.773438 C 17.300781 33.773438 14.726562 32.914062 12.5 31.542969 C 12.84375 31.542969 13.359375 31.542969 13.699219 31.542969 C 15.929688 31.542969 18.15625 30.6875 19.871094 29.484375 C 17.644531 29.484375 15.929688 27.945312 15.242188 26.058594 C 15.585938 26.058594 15.929688 26.230469 16.101562 26.230469 C 16.617188 26.230469 16.960938 26.230469 17.472656 26.058594 C 15.246094 25.542969 13.53125 23.65625 13.53125 21.257812 C 14.21875 21.601562 14.902344 21.773438 15.761719 21.945312 C 14.386719 20.742188 13.53125 19.371094 13.53125 17.65625 C 13.53125 16.800781 13.703125 15.945312 14.21875 15.257812 C 16.617188 18.171875 20.21875 20.230469 24.332031 20.398438 C 24.332031 20.058594 24.160156 19.714844 24.160156 19.199219 C 24.160156 16.457031 26.386719 14.226562 29.132812 14.226562 C 30.503906 14.226562 31.875 14.742188 32.730469 15.769531 C 33.933594 15.597656 34.960938 15.085938 35.816406 14.570312 C 35.476562 15.769531 34.617188 16.628906 33.589844 17.3125 C 34.617188 17.140625 35.476562 16.96875 36.503906 16.453125 C 35.8125 17.484375 34.957031 18.34375 34.101562 19.027344 Z M 34.101562 19.027344 "/>
<path style=" stroke:none;fill-rule:nonzero;fill:rgb(20.392157%,59.607843%,85.882353%);fill-opacity:1;" d="M 38 6 L 10 6 C 7.792969 6 6 7.792969 6 10 L 6 38 C 6 40.207031 7.792969 42 10 42 L 38 42 C 40.207031 42 42 40.207031 42 38 L 42 10 C 42 7.792969 40.207031 6 38 6 Z M 10 38 L 10 10 L 38 10 L 38.003906 38 Z M 10 38 "/>
</g>
</svg>
